HIERARCHY
ROOT Hips
{
  OFFSET 5.84602e-005 68.8428 3.50346
  CHANNELS 6 Xposition Yposition Zposition Zrotation Xrotation Yrotation
  JOINT Spine
  {
    OFFSET 0 8.597 -4.6522
    CHANNELS 3 Zrotation Xrotation Yrotation
    JOINT Spine1
    {
      OFFSET 0 7.8454 0.4098
      CHANNELS 3 Zrotation Xrotation Yrotation
      JOINT Spine2
      {
        OFFSET 0 9.7078 -2.1609
        CHANNELS 3 Zrotation Xrotation Yrotation
        JOINT Neck
        {
          OFFSET 0 21.8761 -0.4549
          CHANNELS 3 Zrotation Xrotation Yrotation
          JOINT Head
          {
            OFFSET 0 12.3537 3.3602
            CHANNELS 3 Zrotation Xrotation Yrotation
            End Site
            {
              OFFSET 0.0001 18.9506 0.5657
            }
          }
        }
        JOINT LeftShoulder
        {
          OFFSET 2.2086 21.1115 7.2329
          CHANNELS 3 Zrotation Xrotation Yrotation
          JOINT LeftArm
          {
            OFFSET 13.1193 3.0282 -4.8998
            CHANNELS 3 Zrotation Xrotation Yrotation
            JOINT LeftForeArm
            {
              OFFSET 27.4081 -0.0973053 -0.2375
              CHANNELS 3 Zrotation Xrotation Yrotation
              JOINT LeftHand
              {
                OFFSET 22.8641 0.0662994 -0.1369
                CHANNELS 3 Zrotation Xrotation Yrotation
                JOINT LeftHandIndex1
                {
                  OFFSET 8.8614 0.775009 2.4612
                  CHANNELS 3 Zrotation Xrotation Yrotation
                  JOINT LeftHandIndex2
                  {
                    OFFSET 3.3146 -0.808304 0.5841
                    CHANNELS 3 Zrotation Xrotation Yrotation
                    JOINT LeftHandIndex3
                    {
                      OFFSET 2.2628 -0.552002 0.3989
                      CHANNELS 3 Zrotation Xrotation Yrotation
                      End Site
                      {
                        OFFSET 1.6102 -0.4807 0.2612
                      }
                    }
                  }
                }
                JOINT LeftHandMiddle1
                {
                  OFFSET 8.9937 0.895004 0.2143
                  CHANNELS 3 Zrotation Xrotation Yrotation
                  JOINT LeftHandMiddle2
                  {
                    OFFSET 4.0984 0.0113983 -0.0242
                    CHANNELS 3 Zrotation Xrotation Yrotation
                    JOINT LeftHandMiddle3
                    {
                      OFFSET 2.2716 0.00689697 -0.0138001
                      CHANNELS 3 Zrotation Xrotation Yrotation
                      End Site
                      {
                        OFFSET 2.0404 -0.1441 0.0027
                      }
                    }
                  }
                }
                JOINT LeftHandRing1
                {
                  OFFSET 8.5234 0.597198 -2.0164
                  CHANNELS 3 Zrotation Xrotation Yrotation
                  JOINT LeftHandRing2
                  {
                    OFFSET 3.7188 -0.188293 -0.2328
                    CHANNELS 3 Zrotation Xrotation Yrotation
                    JOINT LeftHandRing3
                    {
                      OFFSET 2.1191 -0.106598 -0.1332
                      CHANNELS 3 Zrotation Xrotation Yrotation
                      End Site
                      {
                        OFFSET 1.8737 -0.2304 -0.0886
                      }
                    }
                  }
                }
                JOINT LeftHandPinky1
                {
                  OFFSET 7.9094 -0.601089 -3.4825
                  CHANNELS 3 Zrotation Xrotation Yrotation
                  JOINT LeftHandPinky2
                  {
                    OFFSET 2.2874 -0.477005 -0.6314
                    CHANNELS 3 Zrotation Xrotation Yrotation
                    JOINT LeftHandPinky3
                    {
                      OFFSET 1.6774 -0.349396 -0.4633
                      CHANNELS 3 Zrotation Xrotation Yrotation
                      End Site
                      {
                        OFFSET 1.4888 -0.4091 -0.3416
                      }
                    }
                  }
                }
                JOINT LeftHandThumb1
                {
                  OFFSET 1.833 -1.3875 1.3896
                  CHANNELS 3 Zrotation Xrotation Yrotation
                  JOINT LeftHandThumb2
                  {
                    OFFSET 3.4129 -1.121 2.5732
                    CHANNELS 3 Zrotation Xrotation Yrotation
                    JOINT LeftHandThumb3
                    {
                      OFFSET 2.2474 -0.804199 1.6192
                      CHANNELS 3 Zrotation Xrotation Yrotation
                      End Site
                      {
                        OFFSET 1.6527 -0.5689 1.1317
                      }
                    }
                  }
                }
              }
            }
          }
        }
        JOINT RightShoulder
        {
          OFFSET -2.2086 21.1115 7.2329
          CHANNELS 3 Zrotation Xrotation Yrotation
          JOINT RightArm
          {
            OFFSET -13.1216 3.0287 -4.9007
            CHANNELS 3 Zrotation Xrotation Yrotation
            JOINT RightForeArm
            {
              OFFSET -27.4081 -0.0973053 -0.2375
              CHANNELS 3 Zrotation Xrotation Yrotation
              JOINT RightHand
              {
                OFFSET -22.8641 0.0664063 -0.1369
                CHANNELS 3 Zrotation Xrotation Yrotation
                JOINT RightHandIndex1
                {
                  OFFSET -8.8614 0.774994 2.4612
                  CHANNELS 3 Zrotation Xrotation Yrotation
                  JOINT RightHandIndex2
                  {
                    OFFSET -3.3146 -0.808304 0.5841
                    CHANNELS 3 Zrotation Xrotation Yrotation
                    JOINT RightHandIndex3
                    {
                      OFFSET -2.2628 -0.552002 0.3989
                      CHANNELS 3 Zrotation Xrotation Yrotation
                      End Site
                      {
                        OFFSET -1.6102 -0.4807 0.2612
                      }
                    }
                  }
                }
                JOINT RightHandMiddle1
                {
                  OFFSET -8.9937 0.894989 0.2143
                  CHANNELS 3 Zrotation Xrotation Yrotation
                  JOINT RightHandMiddle2
                  {
                    OFFSET -4.0984 0.0113983 -0.0242
                    CHANNELS 3 Zrotation Xrotation Yrotation
                    JOINT RightHandMiddle3
                    {
                      OFFSET -2.2716 0.00691223 -0.0138001
                      CHANNELS 3 Zrotation Xrotation Yrotation
                      End Site
                      {
                        OFFSET -2.0404 -0.1441 0.0027
                      }
                    }
                  }
                }
                JOINT RightHandRing1
                {
                  OFFSET -8.5234 0.597198 -2.0164
                  CHANNELS 3 Zrotation Xrotation Yrotation
                  JOINT RightHandRing2
                  {
                    OFFSET -3.7188 -0.188309 -0.2328
                    CHANNELS 3 Zrotation Xrotation Yrotation
                    JOINT RightHandRing3
                    {
                      OFFSET -2.1191 -0.106598 -0.1332
                      CHANNELS 3 Zrotation Xrotation Yrotation
                      End Site
                      {
                        OFFSET -1.8737 -0.2304 -0.0886
                      }
                    }
                  }
                }
                JOINT RightHandPinky1
                {
                  OFFSET -7.9094 -0.601105 -3.4825
                  CHANNELS 3 Zrotation Xrotation Yrotation
                  JOINT RightHandPinky2
                  {
                    OFFSET -2.2874 -0.477005 -0.6314
                    CHANNELS 3 Zrotation Xrotation Yrotation
                    JOINT RightHandPinky3
                    {
                      OFFSET -1.6774 -0.349396 -0.4633
                      CHANNELS 3 Zrotation Xrotation Yrotation
                      End Site
                      {
                        OFFSET -1.4888 -0.4091 -0.3416
                      }
                    }
                  }
                }
                JOINT RightHandThumb1
                {
                  OFFSET -1.833 -1.38751 1.3896
                  CHANNELS 3 Zrotation Xrotation Yrotation
                  JOINT RightHandThumb2
                  {
                    OFFSET -3.41299 -1.12099 2.5732
                    CHANNELS 3 Zrotation Xrotation Yrotation
                    JOINT RightHandThumb3
                    {
                      OFFSET -2.24741 -0.804108 1.6192
                      CHANNELS 3 Zrotation Xrotation Yrotation
                      End Site
                      {
                        OFFSET -1.6527 -0.5689 1.1317
                      }
                    }
                  }
                }
              }
            }
          }
        }
      }
    }
  }
  JOINT RightUpLeg
  {
    OFFSET -9.1966 3.8861 -0.7581
    CHANNELS 3 Zrotation Xrotation Yrotation
    JOINT RightLeg
    {
      OFFSET -0.7359 -41.0265 0
      CHANNELS 3 Zrotation Xrotation Yrotation
      JOINT RightFoot
      {
        OFFSET 0 -40.2855 0
        CHANNELS 3 Zrotation Xrotation Yrotation
        JOINT RightToeBase
        {
          OFFSET 0 -5.6122 11.7359
          CHANNELS 3 Zrotation Xrotation Yrotation
          End Site
          {
            OFFSET 0 0 7.8731
          }
        }
      }
    }
  }
  JOINT LeftUpLeg
  {
    OFFSET 9.1965 3.8864 -0.7581
    CHANNELS 3 Zrotation Xrotation Yrotation
    JOINT LeftLeg
    {
      OFFSET 0.7359 -41.0268 0
      CHANNELS 3 Zrotation Xrotation Yrotation
      JOINT LeftFoot
      {
        OFFSET 0 -40.2855 0
        CHANNELS 3 Zrotation Xrotation Yrotation
        JOINT LeftToeBase
        {
          OFFSET 0 -5.6122 11.7359
          CHANNELS 3 Zrotation Xrotation Yrotation
          End Site
          {
            OFFSET 0 0 7.8731
          }
        }
      }
    }
  }
}
MOTION
Frames:	5
Frame Time:	0.0333333
5.84602e-005 68.8428 3.50346 0 0 -0 0 0 -0 0 0 -0 0 0 -0 0 0 -0 0 0 -0 0 0 -0 0 0 -0 0 0 -0 0 0 -0 0 0 -0 0 0 -0 0 0 -0 0 0 -0 -0.0146107 -8.87603e-005 -2.63497e-007 2.99804e-018 -2.42657e-020 -1.42182e-022 0 0 -0 -0.0187562 -0.001176 5.858e-005 5.06224e-018 3.88251e-019 1.21329e-020 0 0 -0 -0.012269 -0.00324817 0.000675346 -1.74678e-018 3.88251e-019 -0 0 0 -0 0 0 -0 0 0 -0 0 0 -0 0 0 -0 0 0 -0 0 0 -0 0 0 -0 0 0 -0 0 0 -0 0 0 -0 0.0149955 -9.10982e-005 2.64101e-007 -9.69331e-018 1.21329e-020 -4.7394e-023 0 0 -0 0.0189956 -0.00119102 -5.96516e-005 -5.41541e-019 0 2.42657e-020 0 0 -0 0.0122698 -0.00324857 -0.000673756 -2.00796e-019 0 -1.94126e-019 0 0 -0 0 0 -0 0 0 -0 3.39842 1.33031 -0.0637918 -5.65207e-008 0.834868 -0.000436188 -3.39935 -2.16518 -0.0642563 -8.89002e-024 -1.18485e-023 -1.48106e-024 -3.39844 1.35642 0.0640283 -3.18788e-007 0.782166 -0.000588827 3.39931 -2.13858 0.0634662 1.1399e-023 0 -0 
38.0105 27.7641 14.9103 92.8129 89.9863 135.18 7.24257 3.68085 3.89274 14.2673 7.8163 7.31358 14.2673 7.8163 7.31357 27.1699 -0.700689 -7.581 0.844256 -1.74389 -29.2595 10.5894 0.930087 38.097 3.01336 31.9337 -32.3621 45.5672 -28.0591 -52.7174 -10.4154 8.56848 1.23136 -3.97569e-016 1.59028e-015 3.18055e-015 3.97569e-016 1.59028e-015 1.59028e-015 -4.41391e-032 1.59028e-015 1.59028e-015 -3.97569e-016 1.59028e-015 3.18055e-015 -0.0145839 -8.83343e-005 -5.95022e-007 -3.97569e-016 -4.77083e-015 -1.59028e-015 -3.97569e-016 1.59028e-015 3.18055e-015 -0.0187532 -0.00117566 5.93372e-005 -5.78975e-008 1.70395e-007 1.21934e-008 -3.97569e-016 1.59028e-015 3.18055e-015 -0.0122824 -0.00324983 0.000678477 -5.86752e-008 1.70646e-007 1.21104e-008 -3.97569e-016 1.59028e-015 3.18055e-015 3.97569e-016 1.59028e-015 1.59028e-015 -4.41391e-032 1.59028e-015 1.59028e-015 28.4808 6.69331 19.2511 8.02065 -52.4183 -30.2148 0.054174 -15.3055 1.28286 30.528 -2.99464 -3.84167 3.18055e-015 2.06736e-014 3.18055e-015 -6.36111e-015 2.22639e-014 3.18055e-015 -4.59046e-030 2.06736e-014 1.27222e-014 3.18055e-015 2.06736e-014 3.18055e-015 0.0149356 -8.86365e-005 -4.78864e-006 -3.18055e-015 1.59028e-015 -0 3.18055e-015 2.06736e-014 3.18055e-015 0.0190183 -0.00119001 -5.70852e-005 -6.36111e-015 -3.18055e-015 -0 3.18055e-015 2.06736e-014 3.18055e-015 0.0122232 -0.00324141 -0.000676256 -6.36111e-015 1.35174e-014 3.18055e-015 3.18055e-015 2.06736e-014 3.18055e-015 -6.36111e-015 2.22639e-014 3.18055e-015 -4.59046e-030 2.06736e-014 1.27222e-014 147.295 -36.5821 155.369 82.0902 47.3734 -81.5803 -1.05219 11.3592 10.3231 -3.97569e-015 0 -1.59028e-015 131.773 -45.4982 128.865 39.5977 67.6976 -36.4502 -19.5175 10.0673 10.4276 -8.60009e-007 1.88687e-006 2.32769e-006 
38.0081 27.7645 15.185 92.8129 89.9863 135.18 7.42082 3.72003 3.85432 14.6259 7.90006 7.21918 14.6259 7.90005 7.21917 26.7269 -0.689631 -7.57641 0.64234 -1.69305 -28.9628 9.21185 1.17287 37.693 3.01337 31.9337 -32.3621 45.3821 -27.851 -52.3953 -9.82518 8.82892 1.28562 -2.11182e-007 2.61224e-008 1.5953e-008 7.95139e-016 1.59028e-015 1.59028e-015 -2.11182e-007 2.61225e-008 1.5953e-008 -2.11182e-007 2.61224e-008 1.5953e-008 -0.0146157 -8.81197e-005 1.98239e-006 -2.11183e-007 2.61204e-008 1.59564e-008 -2.11182e-007 2.61224e-008 1.5953e-008 -0.0187446 -0.00117494 5.96698e-005 -2.11183e-007 2.61199e-008 1.59594e-008 -2.11182e-007 2.61224e-008 1.5953e-008 -0.0122976 -0.00325598 0.000678741 -2.11182e-007 2.61218e-008 1.59618e-008 -2.11182e-007 2.61224e-008 1.5953e-008 7.95139e-016 1.59028e-015 1.59028e-015 -2.11182e-007 2.61225e-008 1.5953e-008 27.8661 6.69696 19.2711 8.02068 -52.4183 -30.2148 0.0541809 -15.3055 1.28288 30.3556 -2.96677 -3.74626 6.46882e-007 -5.58702e-007 -3.99598e-007 -3.18055e-015 4.77083e-015 -3.18055e-015 -6.36111e-015 2.38542e-015 -3.18055e-015 6.46882e-007 -5.58702e-007 -3.99598e-007 0.0150178 -9.40204e-005 1.45022e-007 3.18055e-015 -1.59028e-015 6.36111e-015 6.46882e-007 -5.58702e-007 -3.99598e-007 0.0190141 -0.00119328 -6.68451e-005 3.18055e-015 -3.97569e-015 -0 6.46882e-007 -5.58702e-007 -3.99598e-007 0.0123214 -0.0032614 -0.000682583 6.48194e-007 -5.5909e-007 -3.99629e-007 6.46882e-007 -5.58702e-007 -3.99598e-007 -3.18055e-015 4.77083e-015 -3.18055e-015 -6.36111e-015 2.38542e-015 -3.18055e-015 146.743 -36.2257 155.618 82.0833 47.3728 -81.5492 -0.366558 11.0759 9.72956 2.05851e-006 -7.32569e-007 -4.30606e-006 131.289 -45.4262 128.814 39.5892 67.694 -36.4398 -19.2281 9.9594 10.082 -1.59028e-015 -9.54166e-015 -1.59028e-015 
38.0057 27.7648 15.4598 92.8129 89.9863 135.18 7.59917 3.75914 3.81591 14.9849 7.98342 7.12451 14.9849 7.98342 7.12449 26.2826 -0.678568 -7.57168 0.440013 -1.64322 -28.6658 7.83229 1.42597 37.2939 3.01337 31.9337 -32.3621 45.196 -27.6437 -52.073 -9.23452 9.09002 1.33721 -1.07204e-007 8.70686e-007 -4.14798e-009 -1.03969e-007 -8.44693e-007 2.03476e-008 -1.07204e-007 8.70686e-007 -4.14798e-009 -1.07204e-007 8.70686e-007 -4.14798e-009 -0.0146231 -9.09201e-005 -2.15577e-006 -1.07213e-007 8.70686e-007 -4.03678e-009 -1.07204e-007 8.70686e-007 -4.14798e-009 -0.0187624 -0.00117664 5.68612e-005 -1.07215e-007 8.70686e-007 -4.00428e-009 -1.07204e-007 8.70686e-007 -4.14798e-009 -0.0122696 -0.00324898 0.000675404 -1.07206e-007 8.70685e-007 -4.0513e-009 -1.07204e-007 8.70686e-007 -4.14798e-009 -1.03969e-007 -8.44693e-007 2.03476e-008 -1.07204e-007 8.70686e-007 -4.14798e-009 27.2511 6.7004 19.2911 8.02066 -52.4183 -30.2148 0.054168 -15.3055 1.28288 30.1832 -2.93918 -3.65076 0 3.18055e-015 -0 6.36111e-015 3.97569e-015 6.36111e-015 3.18055e-015 3.18055e-015 6.36111e-015 0 3.18055e-015 -0 0.0149527 -8.72182e-005 -6.87123e-006 6.36111e-015 -2.38542e-015 -0 0 3.18055e-015 -0 0.0190094 -0.00119444 -6.35791e-005 -3.18055e-015 -5.56597e-015 -3.18055e-015 0 3.18055e-015 -0 0.012305 -0.00325503 -0.00067451 -6.36111e-015 -3.97569e-015 3.18055e-015 0 3.18055e-015 -0 6.36111e-015 3.97569e-015 6.36111e-015 3.18055e-015 3.18055e-015 6.36111e-015 146.191 -35.8709 155.87 82.0763 47.3724 -81.5181 0.315677 10.7854 9.13959 -1.59028e-015 6.36111e-015 -1.98785e-015 130.806 -45.3539 128.765 39.5809 67.6904 -36.4295 -18.9394 9.84961 9.73708 2.26031e-006 4.3714e-007 -4.21186e-006 
38.0033 27.765 15.7345 92.8064 89.9863 135.187 7.77765 3.79821 3.77751 15.3442 8.06635 7.02956 15.3442 8.06635 7.02959 25.8385 -0.667575 -7.56682 0.237272 -1.5944 -28.3684 6.45114 1.68924 36.9 3.01337 31.9337 -32.3621 45.009 -27.4373 -51.7504 -8.64339 9.35176 1.38614 2.11166e-007 -2.58589e-008 -1.64393e-008 4.22331e-007 -5.17178e-008 -3.28786e-008 2.11166e-007 -2.58589e-008 -1.64393e-008 2.11166e-007 -2.58589e-008 -1.64393e-008 -0.0146051 -8.85702e-005 1.12912e-006 2.11166e-007 -2.58568e-008 -1.64427e-008 2.11166e-007 -2.58589e-008 -1.64393e-008 -0.0187666 -0.00117765 5.79119e-005 2.11166e-007 -2.58562e-008 -1.64457e-008 2.11166e-007 -2.58589e-008 -1.64393e-008 -0.0122649 -0.00324857 0.000673827 2.11166e-007 -2.58582e-008 -1.64481e-008 2.11166e-007 -2.58589e-008 -1.64393e-008 4.22331e-007 -5.17178e-008 -3.28786e-008 2.11166e-007 -2.58589e-008 -1.64393e-008 26.6358 6.70365 19.3112 8.02069 -52.4183 -30.2148 0.0541646 -15.3055 1.28286 30.0107 -2.91186 -3.55518 -3.18055e-015 2.38542e-015 -0 0 4.77083e-015 -0 3.18055e-015 7.95139e-015 3.18055e-015 -3.18055e-015 2.38542e-015 -0 0.0149612 -8.74126e-005 -6.16699e-007 -5.29669e-031 4.77083e-015 6.36111e-015 -3.18055e-015 2.38542e-015 -0 0.0189453 -0.00118345 -5.37681e-005 -3.18055e-015 -1.59028e-015 -6.36111e-015 -3.18055e-015 2.38542e-015 -0 0.0122154 -0.00323138 -0.000663295 -3.18055e-015 -3.97569e-015 -3.18055e-015 -3.18055e-015 2.38542e-015 -0 0 4.77083e-015 -0 3.18055e-015 7.95139e-015 3.18055e-015 145.64 -35.5179 156.125 82.069 47.3718 -81.4867 0.994543 10.4876 8.55334 2.05757e-006 -7.37016e-007 -4.30578e-006 130.324 -45.2813 128.717 39.5728 67.6869 -36.4196 -18.6515 9.73803 9.39282 -9.81994e-006 -1.25354e-006 -2.63881e-006 
